<?xml version="1.0" encoding="UTF-8"?>
<svg version="1.1" xmlns="http://www.w3.org/2000/svg" width="1024" height="1024">
<!-- removed solid white background to make icon transparent and blend with page backgrounds -->
<path d="M0 0 C0.79258209 0.00021149 1.58516418 0.00042297 2.40176392 0.00064087 C15.50048251 0.03544148 27.9003687 1.0830823 40.625 4.375 C41.38216309 4.56223633 42.13932617 4.74947266 42.91943359 4.94238281 C79.73315109 14.19977366 112.31945723 38.95497721 131.89404297 71.48388672 C133.8879912 74.92010096 135.81685839 78.38891916 137.71484375 81.87890625 C139.28816817 84.75850821 140.92681377 87.56871347 142.625 90.375 C143.28693359 90.15884033 143.94886719 89.94268066 144.63085938 89.7199707 C174.58132139 80.0190511 203.80120952 74.39736113 235.3125 74.1875 C236.44067139 74.17444824 237.56884277 74.16139648 238.73120117 74.14794922 C255.95243468 74.13034188 270.15334913 77.35781499 282.78515625 89.44140625 C290.09615164 97.08037153 294.73969901 106.23844878 294.75922108 116.89369965 C294.76367892 118.02288362 294.76813676 119.15206759 294.77272969 120.31546926 C294.77245315 122.17671493 294.77245315 122.17671493 294.77217102 124.07556152 C294.77584771 125.3935834 294.7795244 126.71160527 294.7833125 128.0695672 C294.79332547 131.73147388 294.79704817 135.39336417 294.79970181 139.05528259 C294.80360703 143.00367936 294.81318531 146.95206317 294.82191467 150.90045166 C294.84167438 160.43841125 294.8517453 169.9763719 294.86064246 179.51434684 C294.86502673 184.00763757 294.87039324 188.50092712 294.87563133 192.99421692 C294.89264417 207.93442286 294.9071374 222.87462808 294.91438007 237.81484222 C294.91628993 241.69166566 294.91821026 245.56848909 294.92016602 249.4453125 C294.92064976 250.40886195 294.9211335 251.37241141 294.9216319 252.36515933 C294.92992862 267.96702987 294.95525925 283.56882364 294.98774669 299.17066067 C295.02084018 315.19442263 295.03883096 331.21814562 295.04202431 347.24194193 C295.04418744 356.23635015 295.05290702 365.23064648 295.07848549 374.22502136 C295.10022389 381.88673436 295.10822755 389.54830828 295.09851871 397.21004862 C295.09398289 401.11638579 295.09581797 405.02243623 295.11528015 408.92873383 C295.13297689 412.51178387 295.13186213 416.09433939 295.11638286 419.67739516 C295.11290395 421.5731471 295.12898453 423.46890462 295.14598733 425.36458349 C295.04412913 439.0160315 290.66948806 449.93810434 281.5 460 C267.97007114 472.73231297 250.81787893 474.81026747 233.14511108 475.78656006 C228.49298614 476.04589991 223.84449789 476.36105375 219.1953125 476.66796875 C218.27801865 476.72728577 217.36072479 476.78660278 216.41563416 476.84771729 C153.71980773 480.94457517 89.28905953 497.07556281 33.35546875 526.08984375 C29.10697732 528.23005804 25.02090433 529.68861428 20.375 530.6875 C19.61977051 530.84992187 18.86454102 531.01234375 18.08642578 531.1796875 C-4.1343463 535.47146576 -22.49970252 531.05042845 -42.41699219 521.21826172 C-64.61188056 510.27252108 -87.62592639 502.15711069 -111.375 495.375 C-112.07471924 495.1749939 -112.77443848 494.97498779 -113.49536133 494.7689209 C-136.20697211 488.31389144 -159.00709185 483.70782526 -182.375 480.375 C-184.05505127 480.13209229 -184.05505127 480.13209229 -185.76904297 479.88427734 C-196.8982974 478.32341386 -208.01730034 477.36834064 -219.23046875 476.70703125 C-220.19900787 476.64806168 -221.167547 476.5890921 -222.16543579 476.52833557 C-227.02087342 476.23350525 -231.87551494 475.95966317 -236.734375 475.7277832 C-254.79552125 474.75582248 -270.04475937 470.86494068 -282.8515625 457.15625 C-295.78218545 442.03736778 -293.95938692 421.68396878 -293.88323963 402.97827387 C-293.87202411 399.13641485 -293.88410682 395.294614 -293.89308167 391.45275879 C-293.90694329 383.9484113 -293.89951142 376.44423321 -293.88440608 368.93989393 C-293.86746479 360.18733458 -293.87076629 351.43481646 -293.87450016 342.68224576 C-293.88036541 327.06059072 -293.86625788 311.43901654 -293.84155273 295.81738281 C-293.81761942 280.68193535 -293.81055661 265.54659581 -293.82104492 250.41113281 C-293.83246847 233.89665522 -293.83436772 217.38222741 -293.81994683 200.86775041 C-293.8184211 199.10517518 -293.81690074 197.34259995 -293.81538582 195.58002472 C-293.814628 194.71297422 -293.81387019 193.84592373 -293.81308941 192.95259897 C-293.80835898 186.86060112 -293.81018907 180.76862561 -293.81445122 174.67662811 C-293.81939072 167.24942752 -293.81333597 159.82232871 -293.79355692 152.39515135 C-293.78372388 148.6103067 -293.77853647 144.82561661 -293.78644943 141.04076385 C-293.794869 136.92935427 -293.77985283 132.81835257 -293.76268005 128.70697021 C-293.7686901 127.52329857 -293.77470014 126.33962692 -293.78089231 125.12008643 C-293.67781158 111.50480402 -290.46849543 99.4624017 -281.33984375 89.0546875 C-267.07369194 75.43582025 -248.95736633 73.69462903 -230.18359375 74.08203125 C-199.03321275 75.17397627 -168.99657979 80.70960928 -139.375 90.375 C-139.12443848 89.87274902 -138.87387695 89.37049805 -138.61572266 88.85302734 C-131.32804591 74.35369044 -123.51534516 61.44738141 -112.3828125 49.5390625 C-110.66145685 47.68374922 -109.07842909 45.78779126 -107.5 43.8125 C-103.3967134 38.99902918 -98.34470351 35.2468213 -93.375 31.375 C-92.39917969 30.60671875 -91.42335938 29.8384375 -90.41796875 29.046875 C-72.00525652 14.85726191 -52.06423278 6.79370023 -29.375 2.375 C-28.48844727 2.18953613 -27.60189453 2.00407227 -26.68847656 1.81298828 C-17.81256341 0.11215091 -9.00107613 -0.02218199 0 0 Z " fill="#081A3C" transform="translate(510.375,248.625)"/>
<path d="M0 0 C1.11439453 0.00757324 2.22878906 0.01514648 3.37695312 0.02294922 C32.13288708 0.56320744 61.52863539 5.37887228 88.5 15.4375 C88.36722656 16.56027344 88.23445313 17.68304688 88.09765625 18.83984375 C87.91925488 20.35156062 87.74087037 21.86327947 87.5625 23.375 C87.47548828 24.11041016 87.38847656 24.84582031 87.29882812 25.60351562 C87.12053614 27.11569581 86.94390438 28.62807252 86.76879883 30.140625 C86.59256056 31.64657381 86.41031519 33.15183442 86.22143555 34.65625 C81.91771418 70.18251045 91.22966278 108.45817909 112.5 137.4375 C114.92827877 140.35441859 117.44142601 143.12325066 120.0625 145.8671875 C124.14518825 150.17232992 127.81484544 154.79212911 131.5 159.4375 C132.2528125 160.36046875 133.005625 161.2834375 133.78125 162.234375 C146.58098025 178.45321128 151.50523756 194.35098615 152.67919922 214.81054688 C153.18020803 223.5197001 153.18020803 223.5197001 156.5 231.4375 C157.99573546 232.64446026 159.51977935 233.81676549 161.06298828 234.96240234 C164.64842105 238.0874551 166.13309401 240.0066366 166.56591797 244.77685547 C166.58596213 246.78618314 166.5590422 248.79637231 166.4921875 250.8046875 C166.494534 251.87945343 166.49688049 252.95421936 166.4992981 254.06155396 C166.50001137 257.48027626 166.44062938 260.89446401 166.375 264.3125 C166.34119477 267.72248182 166.32038215 271.13187765 166.31497192 274.54202271 C166.30830527 276.65697297 166.28391135 278.77197101 166.23849487 280.88644409 C166.14032271 291.22293671 168.26498236 299.80694609 175.5 307.4375 C179.79924213 311.50591034 183.99233156 313.67787495 189.5625 315.625 C195.677416 317.99875508 197.80232821 321.12092588 200.9453125 326.72265625 C206.1905831 335.8821112 215.44233203 340.73076633 225.3125 343.8125 C238.38544519 346.41624012 251.71234424 344.54508758 262.875 337.1875 C268.79594454 332.68681445 273.34417703 327.7003623 276.8125 321.125 C278.83733602 317.70601458 280.42666053 316.8198822 284.25 315.8125 C285.11625 315.60753906 285.9825 315.40257812 286.875 315.19140625 C294.71137676 312.94078019 300.50837838 307.37350116 304.5 300.4375 C307.47117442 293.24166974 307.86063752 286.50179045 307.6953125 278.8046875 C307.6883474 276.59505692 307.68319311 274.38542002 307.6796875 272.17578125 C307.65902427 268.73436976 307.62466131 265.29486058 307.55859375 261.85400391 C307.50132224 258.50314339 307.50049582 255.1559472 307.5078125 251.8046875 C307.47382355 250.78365936 307.43983459 249.76263123 307.40481567 248.71066284 C307.44869413 244.3120653 307.55460945 241.54237567 310.48222351 238.12088013 C312.90551758 236.0234375 312.90551758 236.0234375 315.3216095 234.25097656 C319.82607591 230.50107761 321.11655524 225.18544316 321.90185547 219.55761719 C322.15896032 216.47536609 322.31082407 213.40272604 322.4375 210.3125 C323.88510267 186.75951968 333.37203024 169.071161 349.4375 152 C368.41900658 131.81222018 380.38635236 108.42073748 386.5 81.4375 C386.73460937 80.44878906 386.96921875 79.46007812 387.2109375 78.44140625 C391.8190908 57.57114675 389.10859929 36.35948384 386.5 15.4375 C393.36312968 12.50824005 400.19683865 10.23194335 407.4375 8.4375 C408.45803467 8.18331299 409.47856934 7.92912598 410.5300293 7.66723633 C475.47177069 -7.87928901 475.47177069 -7.87928901 496.7265625 4.76171875 C500.99356765 8.10684007 504.08177916 12.0952754 504.77726805 17.65329611 C504.88388717 20.36606464 504.89489123 23.06442373 504.8742218 25.7792511 C504.87819621 26.81933341 504.88217061 27.85941572 504.88626546 28.93101567 C504.89588827 32.41549398 504.88406996 35.89956629 504.87231445 39.3840332 C504.87474246 41.88260042 504.87846186 44.38116666 504.88337708 46.87973022 C504.89181219 52.96202327 504.8862706 59.04415734 504.87411413 65.1264321 C504.86047732 72.21418443 504.86213357 79.30190863 504.86424746 86.38967075 C504.86743655 99.04097346 504.85577567 111.69221985 504.83618164 124.34350586 C504.81718996 136.60914832 504.81009105 148.87472475 504.81567383 161.14038086 C504.8217384 174.50403838 504.8215412 187.86766687 504.810188 201.23132199 C504.80898075 202.65782273 504.80777476 204.08432346 504.80657005 205.5108242 C504.80566475 206.56354188 504.80566475 206.56354188 504.80474115 207.63752658 C504.80086887 212.57314131 504.801253 217.50874521 504.8031559 222.44436073 C504.80550582 229.09524386 504.79691172 235.74605443 504.7810955 242.39692307 C504.77685839 244.83616855 504.77599824 247.27542261 504.77878571 249.71467018 C504.78201665 253.04813843 504.77290229 256.38135553 504.76069641 259.71479797 C504.76447573 260.6766815 504.76825506 261.63856502 504.77214891 262.62959653 C504.71694557 271.17186976 503.91717807 278.85374085 498.4140625 285.64453125 C491.47224368 292.14717378 483.20724881 293.56607126 474.08203125 293.6484375 C472.35155141 293.67406622 470.62108286 293.70046631 468.890625 293.72753906 C467.98119141 293.74079224 467.07175781 293.75404541 466.13476562 293.7677002 C383.48115843 295.07971896 303.8005646 317.38752015 244.4140625 377.421875 C241.96916249 379.9965044 239.7088235 382.65865753 237.5 385.4375 C233.84924186 383.93617699 231.86723727 381.84854665 229.3125 378.875 C221.32536285 369.82464005 212.94279268 362.10387121 203.33837891 354.8359375 C201.56991331 353.4906824 199.82152516 352.12256111 198.07421875 350.75 C175.85203437 333.57518482 149.77543221 321.90097823 123.5 312.4375 C122.75459961 312.16309082 122.00919922 311.88868164 121.24121094 311.60595703 C97.88755232 303.05070873 72.69936951 297.91787803 47.9375 295.8125 C46.87921997 295.71761795 46.87921997 295.71761795 45.79956055 295.62081909 C36.85931171 294.82722443 27.94697912 294.33421224 18.97265625 294.16796875 C18.09717636 294.1511908 17.22169647 294.13441284 16.31968689 294.11712646 C12.05306512 294.04213956 7.78850961 293.996676 3.52124023 293.99169922 C-6.77355813 293.91923025 -15.48150696 293.29010269 -23.4375 286.125 C-28.67957891 280.36488035 -30.61626774 273.57782413 -30.63422108 265.85938454 C-30.64090784 264.5185282 -30.64090784 264.5185282 -30.64772969 263.15058386 C-30.64754533 262.17773109 -30.64736097 261.20487832 -30.64717102 260.20254517 C-30.65084771 259.16190615 -30.6545244 258.12126714 -30.6583125 257.0490936 C-30.66933858 253.55697538 -30.67319132 250.06488692 -30.67700195 246.57275391 C-30.68326724 244.07108974 -30.6899141 241.5694265 -30.69691467 239.06776428 C-30.71612851 231.55918549 -30.72673902 224.05061461 -30.73564246 216.54201847 C-30.74002927 213.00443533 -30.7453949 209.46685367 -30.75063133 205.9292717 C-30.76763699 194.16815565 -30.78213224 182.40704052 -30.78938007 170.64591408 C-30.79128989 167.59629948 -30.79321024 164.54668488 -30.79516602 161.49707031 C-30.79564976 160.73912723 -30.7961335 159.98118414 -30.7966319 159.20027308 C-30.80493647 146.91563981 -30.83028354 134.63110378 -30.86274669 122.34651299 C-30.89581568 109.72973049 -30.91382851 97.11299743 -30.91702431 84.49617136 C-30.91918911 77.41396763 -30.92793365 70.33190588 -30.95348549 63.24974442 C-30.97745899 56.58982812 -30.98101925 49.93012155 -30.97072411 43.27015495 C-30.97022749 40.82522037 -30.97658485 38.3802734 -30.99028015 35.93537712 C-31.00792588 32.59875037 -31.0009282 29.26304892 -30.98774719 25.92642212 C-30.99871644 24.95803079 -31.00968568 23.98963947 -31.02098733 22.99190295 C-30.94891847 15.44041136 -29.18723576 11.18722961 -23.8125 5.6875 C-16.7925821 0.35645399 -8.50658156 -0.08326828 0 0 Z " fill="#FEFEFE" transform="translate(274.5,348.5625)"/>
<path d="M0 0 C23.09362857 19.95105914 38.04252378 49.30689419 41.98046875 79.48046875 C42.26648545 83.85980075 42.31488405 88.2177131 42.29296875 92.60546875 C42.2873291 93.79325928 42.28168945 94.9810498 42.27587891 96.20483398 C41.84789319 127.3778725 29.81664465 153.74266835 9.62084961 177.08081055 C-12.57315845 202.75363438 -23.90834266 226.03362254 -25.01953125 260.48046875 C-35.90953125 260.48046875 -46.79953125 260.48046875 -58.01953125 260.48046875 C-58.01953125 221.87046875 -58.01953125 183.26046875 -58.01953125 143.48046875 C-53.06953125 142.16046875 -48.11953125 140.84046875 -43.01953125 139.48046875 C-33.97044216 134.90508662 -27.59064934 129.60935614 -23.71484375 120.06640625 C-21.67303399 112.47270929 -22.04561842 104.43590697 -25.68359375 97.41796875 C-29.08867099 92.47961112 -33.34440296 89.35814473 -39.01953125 87.48046875 C-46.65007314 86.3580128 -52.45429473 87.2758904 -58.8359375 91.65625 C-69.0475061 100.18720266 -72.45585976 112.93197144 -75.01953125 125.48046875 C-81.28953125 125.48046875 -87.55953125 125.48046875 -94.01953125 125.48046875 C-95.10234375 121.82984375 -95.10234375 121.82984375 -96.20703125 118.10546875 C-100.09044335 105.59281399 -104.77686708 95.61269361 -116.33203125 88.41796875 C-123.77772299 86.52499627 -130.51886098 86.19998501 -137.45703125 89.85546875 C-142.64987609 93.45952048 -145.41257612 97.36600447 -147.01953125 103.48046875 C-148.21158646 112.70896283 -147.76324693 120.90677854 -142.01953125 128.48046875 C-133.1081491 138.22199867 -125.1281329 140.45540683 -112.01953125 143.48046875 C-112.01953125 182.09046875 -112.01953125 220.70046875 -112.01953125 260.48046875 C-122.90953125 260.48046875 -133.79953125 260.48046875 -145.01953125 260.48046875 C-145.10203125 258.04671875 -145.18453125 255.61296875 -145.26953125 253.10546875 C-146.74209958 224.10153636 -159.61706316 201.22457333 -178.13012695 179.66137695 C-188.31940181 167.79268902 -196.59241497 155.78610569 -203.01953125 141.48046875 C-203.50292969 140.413125 -203.98632812 139.34578125 -204.484375 138.24609375 C-216.35860443 109.80569013 -215.20627854 75.94052362 -203.89501953 47.58740234 C-190.66943345 15.7589562 -165.92751664 -9.28929025 -134.12939453 -22.671875 C-128.20462187 -25.05220486 -122.20363349 -26.94100206 -116.01953125 -28.51953125 C-114.15748047 -28.9990625 -114.15748047 -28.9990625 -112.2578125 -29.48828125 C-71.68961857 -38.72206746 -31.26318582 -26.08635816 0 0 Z " fill="#FEE2AA" transform="translate(597.01953125,305.51953125)"/>
<path d="M0 0 C2.7791241 0.0031689 5.55718689 -0.02046851 8.33618164 -0.0456543 C39.23112237 -0.15405521 39.23112237 -0.15405521 50.84594727 5.31567383 C50.50037958 13.09094672 48.78255186 17.37906923 43.15844727 23.00317383 C33.71116067 30.38535004 20.06311376 29.46063671 8.72598267 30.07284546 C-44.10769167 32.99547561 -94.3974644 43.07819074 -144.26928711 60.65161133 C-145.97067279 61.25106328 -147.67360052 61.84613415 -149.37670898 62.44067383 C-161.38293177 66.66844967 -172.78327949 71.83332965 -184.16064453 77.54418945 C-185.17296143 78.04756836 -186.18527832 78.55094727 -187.22827148 79.06958008 C-188.13150146 79.5266333 -189.03473145 79.98368652 -189.96533203 80.45458984 C-190.68760986 80.73874756 -191.4098877 81.02290527 -192.15405273 81.31567383 C-192.81405273 80.98567383 -193.47405273 80.65567383 -194.15405273 80.31567383 C-167.2104682 46.52927417 -128.59422546 26.64367583 -88.15405273 13.31567383 C-87.26250488 13.02176758 -86.37095703 12.72786133 -85.45239258 12.42504883 C-74.81757291 8.99537509 -64.08100432 6.57039048 -53.09155273 4.56567383 C-52.00511475 4.36683594 -50.91867676 4.16799805 -49.79931641 3.96313477 C-33.25572881 1.11361514 -16.77260388 -0.03975597 0 0 Z " fill="#3969A8" transform="translate(728.154052734375,668.684326171875)"/>
<path d="M0 0 C0.94289886 -0.0033284 1.88579773 -0.0066568 2.85726929 -0.01008606 C4.85601314 -0.01513989 6.85476539 -0.01749486 8.85351562 -0.01733398 C11.83999577 -0.01948908 14.82608668 -0.03757314 17.8125 -0.05664062 C61.36725112 -0.18450828 105.18337438 9.86423388 144.2734375 29.16796875 C145.14194336 29.59335937 146.01044922 30.01875 146.90527344 30.45703125 C164.39617763 39.09825802 179.64756747 49.30205818 194.2734375 62.16796875 C195.00949219 62.7815625 195.74554688 63.39515625 196.50390625 64.02734375 C202.31229661 68.89665303 207.26810567 74.49594314 212.2734375 80.16796875 C209.2734375 81.16796875 209.2734375 81.16796875 206.1484375 79.796875 C204.85302955 79.11513508 203.56164175 78.42572475 202.2734375 77.73046875 C167.70873142 59.85136022 128.86696981 48.16286059 90.74707031 40.66503906 C88.41138588 40.19568913 86.08912014 39.68613427 83.765625 39.16015625 C56.82215514 33.18863218 29.11512707 30.69032151 1.60131836 29.33178711 C-21.46502673 28.08964413 -21.46502673 28.08964413 -28.7265625 20.16796875 C-32.41513248 14.69618282 -32.91040827 10.67747098 -32.7265625 4.16796875 C-30.01829246 3.6884421 -27.30994906 3.20933644 -24.6015625 2.73046875 C-23.84101563 2.59576172 -23.08046875 2.46105469 -22.296875 2.32226562 C-21.54921875 2.19013672 -20.8015625 2.05800781 -20.03125 1.921875 C-19.35046387 1.80142822 -18.66967773 1.68098145 -17.96826172 1.55688477 C-17.22850098 1.42854248 -16.48874023 1.3002002 -15.7265625 1.16796875 C-14.84838867 0.99088379 -13.97021484 0.81379883 -13.06542969 0.63134766 C-8.69556033 0.0248829 -4.40665887 0.00550614 0 0 Z " fill="#3969A8" transform="translate(276.7265625,668.83203125)"/>
<path d="M0 0 C4.95 0 9.9 0 15 0 C15 38.28 15 76.56 15 116 C10.05 116 5.1 116 0 116 C0 77.72 0 39.44 0 0 Z " fill="#FDE6AD" transform="translate(504,450)"/>
<path d="M0 0 C0.10883596 2.37625177 0.18766696 4.74743976 0.25 7.125 C0.28351563 7.79015625 0.31703125 8.4553125 0.3515625 9.140625 C0.45198524 14.26218475 -0.71313557 17.11014965 -4 21 C-7.69909524 22.23303175 -11.13462648 22.16351736 -14.98803711 22.17700195 C-15.80134995 22.18357315 -16.61466278 22.19014435 -17.45262146 22.19691467 C-20.14419649 22.21662737 -22.83571587 22.2283037 -25.52734375 22.23828125 C-26.44633516 22.24235678 -27.36532658 22.2464323 -28.31216621 22.25063133 C-33.17319641 22.27148011 -38.03419845 22.28578885 -42.89526367 22.29516602 C-47.92043838 22.30624789 -52.9451724 22.34067154 -57.970191 22.38033772 C-61.83147519 22.40644925 -65.6926533 22.41485281 -69.55401802 22.41844749 C-71.40681508 22.42332503 -73.25960705 22.43497208 -75.11231804 22.45348549 C-77.70276039 22.47776859 -80.29204764 22.47693245 -82.88256836 22.4699707 C-83.64893616 22.48278076 -84.41530396 22.49559082 -85.20489502 22.50878906 C-88.68384522 22.47466642 -90.62873348 22.27970174 -93.44483948 20.15812683 C-96.54088733 15.86168036 -96.08315561 12.07249213 -96 7 C-94.98015518 6.92705215 -93.96031036 6.85410431 -92.90956116 6.77894592 C-83.27315531 6.08943776 -73.6368845 5.39806895 -64.000741 4.7049036 C-59.04735359 4.34864656 -54.09392177 3.99303287 -49.14038086 3.63891602 C-44.355143 3.29680651 -39.57003184 2.95297235 -34.78500175 2.60796928 C-32.96432288 2.47699683 -31.14360007 2.34663367 -29.32283211 2.21690559 C-26.76205688 2.03434545 -24.20145003 1.84956999 -21.64086914 1.66430664 C-20.89711533 1.61179749 -20.15336151 1.55928833 -19.3870697 1.50518799 C-14.92687537 1.17975022 -10.49487623 0.7375123 -6.05559444 0.19539547 C-4.04507507 0.00428463 -2.01958201 0 0 0 Z " fill="#FCE3AB" transform="translate(560,620)"/>
<path d="M0 0 C31.68 0 63.36 0 96 0 C96 2.97 96 5.94 96 9 C78.55747155 10.68100704 61.09291038 12.01080071 43.6171875 13.28710938 C39.72831717 13.57118017 35.8397365 13.85902974 31.95121765 14.1478672 C28.92125801 14.37248174 25.89114935 14.59503108 22.86099243 14.81696701 C21.42570134 14.92235775 19.99045836 15.02840615 18.55526733 15.13515091 C16.56174061 15.28313722 14.56798348 15.42800953 12.57421875 15.57275391 C11.44588623 15.65554596 10.31755371 15.73833801 9.1550293 15.82363892 C6.1075441 15.99398846 3.05224261 16 0 16 C0 10.72 0 5.44 0 0 Z " fill="#FBE1AA" transform="translate(464,591)"/>
<path d="M0 0 C31.68 0 63.36 0 96 0 C96 2.97 96 5.94 96 9 C91.38 9 86.76 9 82 9 C82 8.67 82 8.34 82 8 C85.96 8 89.92 8 94 8 C94 6.02 94 4.04 94 2 C63.64 2 33.28 2 2 2 C2.33 5.96 2.66 9.92 3 14 C6.96 14 10.92 14 15 14 C15 14.33 15 14.66 15 15 C10.05 15.33 5.1 15.66 0 16 C0 10.72 0 5.44 0 0 Z " fill="#DDD3AB" transform="translate(464,591)"/>
<path d="M0 0 C3.61679881 0 4.89954198 0.90689257 7.5625 3.375 C10.89270643 7.6747602 12.3683137 12.87705194 14 18 C12.3203125 18.671875 12.3203125 18.671875 10 19 C7.4921875 17.890625 7.4921875 17.890625 4.875 16.25 C4.00617188 15.71890625 3.13734375 15.1878125 2.2421875 14.640625 C0 13 0 13 -2 10 C-2.37167184 7.23979004 -2.17850636 4.81147524 -2 2 C-1.34 1.34 -0.68 0.68 0 0 Z " fill="#F8E5B0" transform="translate(470,411)"/>
<path d="M0 0 C0.78375 0.2475 1.5675 0.495 2.375 0.75 C3.85396861 3.70793723 3.8105582 5.45220224 3.375 8.75 C0.75967989 13.46156906 -2.41624352 15.9848833 -7.5 17.6875 C-8.86885357 18.06472532 -10.24226241 18.42736123 -11.625 18.75 C-11.2101477 12.38893145 -9.03309377 7.13794015 -5.625 1.75 C-2.625 -0.25 -2.625 -0.25 0 0 Z " fill="#F7E4AF" transform="translate(552.625,411.25)"/>
<path d="M0 0 C11.55 0 23.1 0 35 0 C29.56578487 5.43421513 24.58352988 6.60183001 17.0625 7.4375 C11.81830599 7.22301354 6.654902 5.34312407 2 3 C1.34 2.01 0.68 1.02 0 0 Z " fill="#E9EAED" transform="translate(494,666)"/>
<path d="M0 0 C3.91652632 -0.08714316 7.83280311 -0.14043985 11.75 -0.1875 C12.86117188 -0.21263672 13.97234375 -0.23777344 15.1171875 -0.26367188 C16.18710937 -0.27333984 17.25703125 -0.28300781 18.359375 -0.29296875 C19.34389648 -0.3086792 20.32841797 -0.32438965 21.34277344 -0.34057617 C24 0 24 0 28 3 C18.43 3 8.86 3 -1 3 C-0.67 2.01 -0.34 1.02 0 0 Z " fill="#152143" transform="translate(263,323)"/>
<path d="M0 0 C0.08117951 2.41734542 0.14056926 4.83194949 0.1875 7.25 C0.22520508 8.27287109 0.22520508 8.27287109 0.26367188 9.31640625 C0.33222074 14.02342814 -0.01566345 15.0208846 -3 19 C-2.67 13.39 -2.34 7.78 -2 2 C-3.98 2 -5.96 2 -8 2 C-4.91190305 0.23537317 -3.76687864 0 0 0 Z " fill="#D7D1AB" transform="translate(560,620)"/>
<path d="M0 0 C3.37543847 0.56257308 5.95883135 1.47941568 9 3 C9.99 3 10.98 3 12 3 C14.1875 5.5 14.1875 5.5 16 8 C11.85701333 7.40165275 8.81805623 5.99335715 5.1875 3.9375 C4.21167969 3.38964844 3.23585938 2.84179688 2.23046875 2.27734375 C1.49441406 1.85582031 0.75835937 1.43429687 0 1 C0 0.67 0 0.34 0 0 Z " fill="#4076B9" transform="translate(473,742)"/>
<path d="M0 0 C2.97 0 5.94 0 9 0 C9 0.33 9 0.66 9 1 C11.31 1.33 13.62 1.66 16 2 C16 2.33 16 2.66 16 3 C10.06 3 4.12 3 -2 3 C-1.34 2.67 -0.68 2.34 0 2 C0 1.34 0 0.68 0 0 Z " fill="#112042" transform="translate(295,642)"/>
<path d="M0 0 C0.66 0.33 1.32 0.66 2 1 C2 1.66 2 2.32 2 3 C1.34 3 0.68 3 0 3 C-0.18175781 3.58007812 -0.36351562 4.16015625 -0.55078125 4.7578125 C-2.0418106 9.39147293 -3.68333576 13.69762355 -6 18 C-7.42600325 13.72199024 -5.45637064 11.13234078 -3.5625 7.3125 C-3.22412109 6.61060547 -2.88574219 5.90871094 -2.53710938 5.18554688 C-1.70018652 3.45276294 -0.85122607 1.72580248 0 0 Z " fill="#0A0D2E" transform="translate(632,441)"/>
<path d="M0 0 C0.99 0 1.98 0 3 0 C3.33 3.3 3.66 6.6 4 10 C3.01 10.495 3.01 10.495 2 11 C0.57741188 7.17679443 -0.24042276 4.08718695 0 0 Z " fill="#15213D" transform="translate(659,366)"/>
<path d="M0 0 C1.54779125 5.51618836 -0.14534303 9.68331669 -2 15 C-2.33 15 -2.66 15 -3 15 C-3.36263859 9.1977825 -2.25684543 5.36000789 0 0 Z " fill="#F8ECB7" transform="translate(392,357)"/>
<path d="M0 0 C0.66 0.33 1.32 0.66 2 1 C1.49396008 3.16874252 1.00016187 4.99967627 0 7 C-0.2275015 8.87056791 -0.40962811 10.74685958 -0.5625 12.625 C-0.64628906 13.62789063 -0.73007812 14.63078125 -0.81640625 15.6640625 C-0.87699219 16.43492187 -0.93757813 17.20578125 -1 18 C-1.33 18 -1.66 18 -2 18 C-2.054348 15.9377952 -2.09294961 13.87517184 -2.125 11.8125 C-2.14820313 10.66394531 -2.17140625 9.51539063 -2.1953125 8.33203125 C-2.00484152 5.08259628 -1.39360127 2.91339479 0 0 Z " fill="#060A29" transform="translate(451,404)"/>
<path d="M0 0 C0.66 1.32 1.32 2.64 2 4 C-0.375 5.5625 -0.375 5.5625 -3 7 C-3.66 6.67 -4.32 6.34 -5 6 C-3.35 4.02 -1.7 2.04 0 0 Z " fill="#3F75B7" transform="translate(539,743)"/>
<path d="M0 0 C2.475 0.495 2.475 0.495 5 1 C5 1.66 5 2.32 5 3 C5.99 3 6.98 3 8 3 C8 3.66 8 4.32 8 5 C5.36 4.34 2.72 3.68 0 3 C0 2.01 0 1.02 0 0 Z " fill="#161F3A" transform="translate(493,688)"/>
<path d="M0 0 C0 0.99 0 1.98 0 3 C-3.3 3 -6.6 3 -10 3 C-5.78492722 -0.16130459 -4.93928888 -0.3367697 0 0 Z " fill="#172341" transform="translate(544,601)"/>
<path d="M0 0 C3.99996286 1.33332095 4.83782337 3.4957827 7 7 C6.67 7.66 6.34 8.32 6 9 C4.99406757 7.8803014 3.9954151 6.7540588 3 5.625 C2.443125 4.99851562 1.88625 4.37203125 1.3125 3.7265625 C0 2 0 2 0 0 Z " fill="#EAE2B4" transform="translate(412,475)"/>
<path d="M0 0 C0 3 0 3 -2.5 5.6875 C-3.325 6.450625 -4.15 7.21375 -5 8 C-4.67 5.69 -4.34 3.38 -4 1 C-2.68 0.67 -1.36 0.34 0 0 Z " fill="#050B2C" transform="translate(412,319)"/>
</svg>
